<svg width="1920" height="960" viewBox="0 0 1920 960" fill="none" xmlns="http://www.w3.org/2000/svg">
<rect width="1920" height="960" fill="#FFC700"/>
<path d="M77.2412 572V542.498H95.7374V546.33H81.6924V555.319H94.7723V559.136H81.6924V568.168H95.9103V572H77.2412ZM111.3 549.874V553.331H98.796V549.874H111.3ZM102.224 572V547.31C102.224 545.927 102.527 544.779 103.132 543.867C103.737 542.945 104.539 542.258 105.538 541.807C106.536 541.346 107.622 541.115 108.793 541.115C109.658 541.115 110.397 541.187 111.012 541.331C111.626 541.466 112.082 541.591 112.38 541.706L111.372 545.192C111.17 545.134 110.911 545.067 110.594 544.99C110.277 544.904 109.893 544.861 109.441 544.861C108.395 544.861 107.646 545.12 107.194 545.639C106.752 546.157 106.532 546.906 106.532 547.886V572H102.224ZM125.706 549.874V553.331H113.202V549.874H125.706ZM116.631 572V547.31C116.631 545.927 116.933 544.779 117.538 543.867C118.143 542.945 118.945 542.258 119.944 541.807C120.943 541.346 122.028 541.115 123.199 541.115C124.064 541.115 124.803 541.187 125.418 541.331C126.032 541.466 126.489 541.591 126.786 541.706L125.778 545.192C125.576 545.134 125.317 545.067 125 544.99C124.683 544.904 124.299 544.861 123.848 544.861C122.801 544.861 122.052 545.12 121.6 545.639C121.159 546.157 120.938 546.906 120.938 547.886V572H116.631ZM138.031 572.447C135.956 572.447 134.146 571.971 132.6 571.02C131.054 570.07 129.853 568.74 128.999 567.03C128.144 565.321 127.717 563.323 127.717 561.038C127.717 558.742 128.144 556.735 128.999 555.016C129.853 553.297 131.054 551.962 132.6 551.012C134.146 550.061 135.956 549.586 138.031 549.586C140.105 549.586 141.915 550.061 143.461 551.012C145.008 551.962 146.208 553.297 147.063 555.016C147.917 556.735 148.345 558.742 148.345 561.038C148.345 563.323 147.917 565.321 147.063 567.03C146.208 568.74 145.008 570.07 143.461 571.02C141.915 571.971 140.105 572.447 138.031 572.447ZM138.045 568.831C139.39 568.831 140.504 568.476 141.387 567.765C142.271 567.054 142.924 566.108 143.346 564.927C143.778 563.746 143.994 562.445 143.994 561.023C143.994 559.612 143.778 558.315 143.346 557.134C142.924 555.943 142.271 554.987 141.387 554.267C140.504 553.547 139.39 553.187 138.045 553.187C136.691 553.187 135.567 553.547 134.674 554.267C133.791 554.987 133.133 555.943 132.701 557.134C132.278 558.315 132.067 559.612 132.067 561.023C132.067 562.445 132.278 563.746 132.701 564.927C133.133 566.108 133.791 567.054 134.674 567.765C135.567 568.476 136.691 568.831 138.045 568.831ZM152.585 572V549.874H156.748V553.389H156.978C157.382 552.198 158.092 551.261 159.11 550.58C160.138 549.888 161.3 549.542 162.596 549.542C162.865 549.542 163.182 549.552 163.547 549.571C163.921 549.59 164.214 549.614 164.426 549.643V553.763C164.253 553.715 163.945 553.662 163.504 553.605C163.062 553.537 162.62 553.504 162.178 553.504C161.16 553.504 160.253 553.72 159.456 554.152C158.668 554.575 158.044 555.165 157.583 555.924C157.122 556.673 156.892 557.528 156.892 558.488V572H152.585ZM179.221 549.874V553.331H167.135V549.874H179.221ZM170.376 544.573H174.683V565.503C174.683 566.339 174.808 566.968 175.058 567.39C175.307 567.803 175.629 568.087 176.023 568.24C176.426 568.384 176.863 568.456 177.334 568.456C177.68 568.456 177.982 568.432 178.241 568.384C178.501 568.336 178.702 568.298 178.846 568.269L179.624 571.827C179.375 571.923 179.019 572.019 178.558 572.115C178.097 572.221 177.521 572.279 176.83 572.288C175.696 572.307 174.64 572.106 173.66 571.683C172.681 571.261 171.889 570.607 171.284 569.724C170.679 568.84 170.376 567.731 170.376 566.396V544.573ZM188.2 542.498V572H183.893V542.498H188.2ZM202.963 572.447C200.783 572.447 198.905 571.981 197.33 571.049C195.765 570.108 194.555 568.788 193.7 567.088C192.855 565.378 192.433 563.376 192.433 561.081C192.433 558.814 192.855 556.817 193.7 555.088C194.555 553.36 195.746 552.01 197.273 551.04C198.809 550.071 200.605 549.586 202.66 549.586C203.909 549.586 205.119 549.792 206.29 550.205C207.462 550.618 208.514 551.266 209.445 552.15C210.377 553.033 211.111 554.181 211.649 555.593C212.187 556.995 212.456 558.699 212.456 560.706V562.233H194.867V559.007H208.235C208.235 557.873 208.005 556.87 207.544 555.996C207.083 555.112 206.434 554.416 205.599 553.907C204.773 553.398 203.803 553.144 202.689 553.144C201.479 553.144 200.423 553.441 199.52 554.037C198.627 554.623 197.935 555.391 197.446 556.342C196.965 557.283 196.725 558.305 196.725 559.41V561.931C196.725 563.41 196.985 564.668 197.503 565.705C198.031 566.742 198.766 567.534 199.707 568.082C200.648 568.62 201.748 568.888 203.006 568.888C203.822 568.888 204.567 568.773 205.239 568.543C205.911 568.303 206.492 567.947 206.982 567.477C207.472 567.006 207.846 566.425 208.105 565.734L212.182 566.468C211.856 567.669 211.27 568.72 210.425 569.623C209.589 570.516 208.538 571.213 207.27 571.712C206.012 572.202 204.576 572.447 202.963 572.447ZM233.247 555.276L229.343 555.967C229.18 555.468 228.921 554.992 228.565 554.541C228.22 554.09 227.749 553.72 227.154 553.432C226.558 553.144 225.814 553 224.921 553C223.701 553 222.683 553.273 221.867 553.821C221.051 554.358 220.643 555.055 220.643 555.909C220.643 556.649 220.916 557.244 221.464 557.696C222.011 558.147 222.895 558.517 224.114 558.805L227.629 559.612C229.665 560.082 231.182 560.807 232.181 561.787C233.18 562.766 233.679 564.039 233.679 565.604C233.679 566.929 233.295 568.111 232.527 569.148C231.768 570.175 230.707 570.982 229.343 571.568C227.989 572.154 226.419 572.447 224.633 572.447C222.155 572.447 220.134 571.918 218.568 570.862C217.003 569.796 216.043 568.283 215.687 566.324L219.85 565.691C220.11 566.776 220.643 567.597 221.449 568.154C222.256 568.701 223.308 568.975 224.604 568.975C226.016 568.975 227.144 568.682 227.989 568.096C228.834 567.501 229.257 566.776 229.257 565.921C229.257 565.23 228.998 564.649 228.479 564.178C227.97 563.707 227.187 563.352 226.131 563.112L222.386 562.291C220.321 561.82 218.794 561.071 217.805 560.044C216.825 559.016 216.335 557.715 216.335 556.14C216.335 554.834 216.7 553.691 217.43 552.711C218.16 551.732 219.169 550.968 220.455 550.421C221.742 549.864 223.216 549.586 224.878 549.586C227.269 549.586 229.151 550.104 230.525 551.141C231.898 552.169 232.805 553.547 233.247 555.276ZM254.427 555.276L250.524 555.967C250.36 555.468 250.101 554.992 249.746 554.541C249.4 554.09 248.929 553.72 248.334 553.432C247.739 553.144 246.994 553 246.101 553C244.882 553 243.864 553.273 243.047 553.821C242.231 554.358 241.823 555.055 241.823 555.909C241.823 556.649 242.097 557.244 242.644 557.696C243.191 558.147 244.075 558.517 245.295 558.805L248.809 559.612C250.845 560.082 252.363 560.807 253.361 561.787C254.36 562.766 254.86 564.039 254.86 565.604C254.86 566.929 254.475 568.111 253.707 569.148C252.949 570.175 251.887 570.982 250.524 571.568C249.17 572.154 247.599 572.447 245.813 572.447C243.335 572.447 241.314 571.918 239.749 570.862C238.183 569.796 237.223 568.283 236.868 566.324L241.031 565.691C241.29 566.776 241.823 567.597 242.63 568.154C243.436 568.701 244.488 568.975 245.784 568.975C247.196 568.975 248.324 568.682 249.17 568.096C250.015 567.501 250.437 566.776 250.437 565.921C250.437 565.23 250.178 564.649 249.659 564.178C249.15 563.707 248.368 563.352 247.311 563.112L243.566 562.291C241.501 561.82 239.974 561.071 238.985 560.044C238.006 559.016 237.516 557.715 237.516 556.14C237.516 554.834 237.881 553.691 238.611 552.711C239.34 551.732 240.349 550.968 241.636 550.421C242.923 549.864 244.397 549.586 246.058 549.586C248.449 549.586 250.332 550.104 251.705 551.141C253.078 552.169 253.986 553.547 254.427 555.276ZM269.541 572V542.498H287.835V546.33H273.992V555.319H286.524V559.136H273.992V572H269.541ZM292.396 572V549.874H296.703V572H292.396ZM294.571 546.46C293.822 546.46 293.178 546.21 292.64 545.711C292.112 545.202 291.848 544.597 291.848 543.896C291.848 543.185 292.112 542.58 292.64 542.08C293.178 541.571 293.822 541.317 294.571 541.317C295.32 541.317 295.958 541.571 296.487 542.08C297.024 542.58 297.293 543.185 297.293 543.896C297.293 544.597 297.024 545.202 296.487 545.711C295.958 546.21 295.32 546.46 294.571 546.46ZM311.206 580.758C309.449 580.758 307.936 580.528 306.669 580.067C305.411 579.606 304.383 578.996 303.586 578.237C302.789 577.479 302.193 576.648 301.8 575.745L305.502 574.218C305.761 574.641 306.107 575.088 306.539 575.558C306.981 576.038 307.576 576.446 308.325 576.783C309.084 577.119 310.059 577.287 311.249 577.287C312.882 577.287 314.231 576.888 315.297 576.091C316.363 575.304 316.896 574.046 316.896 572.317V567.967H316.623C316.363 568.437 315.989 568.961 315.499 569.537C315.019 570.113 314.356 570.612 313.511 571.035C312.666 571.457 311.566 571.669 310.212 571.669C308.464 571.669 306.889 571.261 305.487 570.444C304.095 569.618 302.99 568.404 302.174 566.8C301.367 565.186 300.964 563.203 300.964 560.85C300.964 558.498 301.363 556.481 302.16 554.8C302.966 553.12 304.071 551.833 305.473 550.94C306.875 550.037 308.464 549.586 310.241 549.586C311.614 549.586 312.724 549.816 313.569 550.277C314.414 550.728 315.072 551.257 315.542 551.862C316.022 552.467 316.392 553 316.651 553.461H316.968V549.874H321.189V572.49C321.189 574.391 320.747 575.952 319.864 577.171C318.98 578.391 317.785 579.294 316.277 579.88C314.779 580.465 313.089 580.758 311.206 580.758ZM311.163 568.096C312.402 568.096 313.449 567.808 314.303 567.232C315.168 566.646 315.821 565.811 316.262 564.725C316.714 563.631 316.939 562.32 316.939 560.793C316.939 559.304 316.719 557.993 316.277 556.86C315.835 555.727 315.187 554.843 314.332 554.21C313.477 553.566 312.421 553.244 311.163 553.244C309.867 553.244 308.786 553.581 307.922 554.253C307.058 554.915 306.405 555.818 305.963 556.961C305.531 558.104 305.315 559.381 305.315 560.793C305.315 562.243 305.535 563.515 305.977 564.61C306.419 565.705 307.072 566.56 307.936 567.174C308.81 567.789 309.886 568.096 311.163 568.096ZM326.398 572V549.874H330.532V553.475H330.806C331.267 552.255 332.02 551.305 333.067 550.623C334.114 549.931 335.367 549.586 336.827 549.586C338.306 549.586 339.545 549.931 340.543 550.623C341.552 551.314 342.296 552.265 342.776 553.475H343.007C343.535 552.294 344.375 551.353 345.528 550.652C346.68 549.941 348.053 549.586 349.648 549.586C351.655 549.586 353.292 550.215 354.56 551.473C355.837 552.731 356.476 554.627 356.476 557.163V572H352.168V557.566C352.168 556.068 351.76 554.983 350.944 554.31C350.128 553.638 349.153 553.302 348.02 553.302C346.618 553.302 345.528 553.734 344.75 554.599C343.972 555.453 343.583 556.553 343.583 557.897V572H339.29V557.292C339.29 556.092 338.916 555.127 338.167 554.397C337.418 553.667 336.443 553.302 335.242 553.302C334.426 553.302 333.672 553.518 332.981 553.95C332.299 554.373 331.747 554.963 331.324 555.722C330.911 556.481 330.705 557.36 330.705 558.358V572H326.398ZM368.12 572.49C366.718 572.49 365.45 572.23 364.317 571.712C363.184 571.184 362.286 570.42 361.623 569.421C360.97 568.423 360.643 567.198 360.643 565.748C360.643 564.5 360.883 563.472 361.364 562.665C361.844 561.859 362.492 561.22 363.308 560.75C364.125 560.279 365.037 559.924 366.045 559.684C367.054 559.443 368.081 559.261 369.128 559.136C370.453 558.983 371.529 558.858 372.355 558.762C373.181 558.656 373.781 558.488 374.155 558.257C374.53 558.027 374.717 557.652 374.717 557.134V557.033C374.717 555.775 374.362 554.8 373.651 554.109C372.95 553.417 371.903 553.072 370.511 553.072C369.061 553.072 367.918 553.393 367.083 554.037C366.257 554.671 365.685 555.376 365.368 556.154L361.32 555.232C361.801 553.888 362.502 552.803 363.424 551.977C364.355 551.141 365.426 550.536 366.636 550.162C367.846 549.778 369.118 549.586 370.453 549.586C371.337 549.586 372.273 549.691 373.262 549.902C374.261 550.104 375.193 550.479 376.057 551.026C376.931 551.573 377.646 552.356 378.203 553.374C378.76 554.382 379.039 555.693 379.039 557.307V572H374.832V568.975H374.66C374.381 569.532 373.963 570.079 373.406 570.617C372.849 571.155 372.134 571.601 371.26 571.957C370.386 572.312 369.339 572.49 368.12 572.49ZM369.056 569.033C370.247 569.033 371.265 568.797 372.11 568.327C372.965 567.856 373.613 567.241 374.055 566.483C374.506 565.715 374.732 564.893 374.732 564.02V561.167C374.578 561.321 374.28 561.465 373.839 561.599C373.406 561.724 372.912 561.835 372.355 561.931C371.798 562.017 371.255 562.099 370.727 562.176C370.199 562.243 369.757 562.301 369.402 562.349C368.566 562.454 367.803 562.632 367.111 562.882C366.429 563.131 365.882 563.491 365.469 563.962C365.066 564.423 364.864 565.037 364.864 565.806C364.864 566.872 365.258 567.678 366.045 568.226C366.833 568.764 367.836 569.033 369.056 569.033ZM413.304 549.874L405.28 572H400.67L392.632 549.874H397.256L402.86 566.901H403.09L408.68 549.874H413.304ZM422.589 572.49C421.187 572.49 419.919 572.23 418.786 571.712C417.653 571.184 416.755 570.42 416.092 569.421C415.439 568.423 415.113 567.198 415.113 565.748C415.113 564.5 415.353 563.472 415.833 562.665C416.313 561.859 416.961 561.22 417.778 560.75C418.594 560.279 419.506 559.924 420.515 559.684C421.523 559.443 422.551 559.261 423.597 559.136C424.923 558.983 425.998 558.858 426.824 558.762C427.65 558.656 428.25 558.488 428.625 558.257C428.999 558.027 429.186 557.652 429.186 557.134V557.033C429.186 555.775 428.831 554.8 428.121 554.109C427.419 553.417 426.373 553.072 424.98 553.072C423.53 553.072 422.387 553.393 421.552 554.037C420.726 554.671 420.154 555.376 419.838 556.154L415.79 555.232C416.27 553.888 416.971 552.803 417.893 551.977C418.824 551.141 419.895 550.536 421.105 550.162C422.315 549.778 423.588 549.586 424.923 549.586C425.806 549.586 426.742 549.691 427.732 549.902C428.73 550.104 429.662 550.479 430.526 551.026C431.4 551.573 432.116 552.356 432.673 553.374C433.23 554.382 433.508 555.693 433.508 557.307V572H429.302V568.975H429.129C428.85 569.532 428.433 570.079 427.876 570.617C427.319 571.155 426.603 571.601 425.729 571.957C424.855 572.312 423.809 572.49 422.589 572.49ZM423.525 569.033C424.716 569.033 425.734 568.797 426.579 568.327C427.434 567.856 428.082 567.241 428.524 566.483C428.975 565.715 429.201 564.893 429.201 564.02V561.167C429.047 561.321 428.75 561.465 428.308 561.599C427.876 561.724 427.381 561.835 426.824 561.931C426.267 562.017 425.724 562.099 425.196 562.176C424.668 562.243 424.226 562.301 423.871 562.349C423.035 562.454 422.272 562.632 421.581 562.882C420.899 563.131 420.351 563.491 419.938 563.962C419.535 564.423 419.333 565.037 419.333 565.806C419.333 566.872 419.727 567.678 420.515 568.226C421.302 568.764 422.306 569.033 423.525 569.033ZM438.677 572V549.874H442.84V553.389H443.071C443.474 552.198 444.185 551.261 445.203 550.58C446.23 549.888 447.392 549.542 448.689 549.542C448.957 549.542 449.274 549.552 449.639 549.571C450.014 549.59 450.307 549.614 450.518 549.643V553.763C450.345 553.715 450.038 553.662 449.596 553.605C449.154 553.537 448.713 553.504 448.271 553.504C447.253 553.504 446.345 553.72 445.548 554.152C444.761 554.575 444.137 555.165 443.676 555.924C443.215 556.673 442.984 557.528 442.984 558.488V572H438.677ZM453.677 572V549.874H457.985V572H453.677ZM455.853 546.46C455.104 546.46 454.46 546.21 453.922 545.711C453.394 545.202 453.13 544.597 453.13 543.896C453.13 543.185 453.394 542.58 453.922 542.08C454.46 541.571 455.104 541.317 455.853 541.317C456.602 541.317 457.24 541.571 457.769 542.08C458.306 542.58 458.575 543.185 458.575 543.896C458.575 544.597 458.306 545.202 457.769 545.711C457.24 546.21 456.602 546.46 455.853 546.46ZM469.65 572.49C468.248 572.49 466.981 572.23 465.847 571.712C464.714 571.184 463.816 570.42 463.154 569.421C462.501 568.423 462.174 567.198 462.174 565.748C462.174 564.5 462.414 563.472 462.894 562.665C463.374 561.859 464.023 561.22 464.839 560.75C465.655 560.279 466.568 559.924 467.576 559.684C468.584 559.443 469.612 559.261 470.659 559.136C471.984 558.983 473.06 558.858 473.885 558.762C474.711 558.656 475.312 558.488 475.686 558.257C476.061 558.027 476.248 557.652 476.248 557.134V557.033C476.248 555.775 475.893 554.8 475.182 554.109C474.481 553.417 473.434 553.072 472.042 553.072C470.591 553.072 469.449 553.393 468.613 554.037C467.787 554.671 467.216 555.376 466.899 556.154L462.851 555.232C463.331 553.888 464.032 552.803 464.954 551.977C465.886 551.141 466.957 550.536 468.167 550.162C469.377 549.778 470.649 549.586 471.984 549.586C472.867 549.586 473.804 549.691 474.793 549.902C475.792 550.104 476.723 550.479 477.588 551.026C478.461 551.573 479.177 552.356 479.734 553.374C480.291 554.382 480.569 555.693 480.569 557.307V572H476.363V568.975H476.19C475.912 569.532 475.494 570.079 474.937 570.617C474.38 571.155 473.665 571.601 472.791 571.957C471.917 572.312 470.87 572.49 469.65 572.49ZM470.587 569.033C471.777 569.033 472.795 568.797 473.641 568.327C474.495 567.856 475.143 567.241 475.585 566.483C476.037 565.715 476.262 564.893 476.262 564.02V561.167C476.109 561.321 475.811 561.465 475.369 561.599C474.937 561.724 474.442 561.835 473.885 561.931C473.328 562.017 472.786 562.099 472.258 562.176C471.729 562.243 471.288 562.301 470.932 562.349C470.097 562.454 469.333 562.632 468.642 562.882C467.96 563.131 467.413 563.491 467 563.962C466.596 564.423 466.395 565.037 466.395 565.806C466.395 566.872 466.788 567.678 467.576 568.226C468.363 568.764 469.367 569.033 470.587 569.033ZM486.084 572V542.498H490.391V553.461H490.651C490.9 553 491.26 552.467 491.731 551.862C492.202 551.257 492.855 550.728 493.69 550.277C494.526 549.816 495.63 549.586 497.003 549.586C498.789 549.586 500.384 550.037 501.786 550.94C503.188 551.842 504.287 553.144 505.085 554.843C505.891 556.543 506.295 558.589 506.295 560.98C506.295 563.371 505.896 565.422 505.099 567.131C504.302 568.831 503.207 570.142 501.815 571.064C500.422 571.976 498.833 572.432 497.046 572.432C495.702 572.432 494.602 572.206 493.748 571.755C492.903 571.304 492.24 570.776 491.76 570.171C491.28 569.566 490.91 569.028 490.651 568.557H490.29V572H486.084ZM490.305 560.937C490.305 562.493 490.531 563.856 490.982 565.028C491.433 566.2 492.086 567.117 492.941 567.779C493.796 568.432 494.842 568.759 496.081 568.759C497.368 568.759 498.444 568.418 499.308 567.736C500.172 567.045 500.825 566.108 501.267 564.927C501.719 563.746 501.944 562.416 501.944 560.937C501.944 559.477 501.723 558.166 501.282 557.004C500.849 555.842 500.196 554.925 499.322 554.253C498.458 553.581 497.378 553.244 496.081 553.244C494.833 553.244 493.776 553.566 492.912 554.21C492.057 554.853 491.409 555.751 490.967 556.903C490.526 558.056 490.305 559.4 490.305 560.937ZM514.87 542.498V572H510.563V542.498H514.87ZM529.633 572.447C527.453 572.447 525.576 571.981 524.001 571.049C522.435 570.108 521.225 568.788 520.371 567.088C519.526 565.378 519.103 563.376 519.103 561.081C519.103 558.814 519.526 556.817 520.371 555.088C521.225 553.36 522.416 552.01 523.943 551.04C525.48 550.071 527.275 549.586 529.331 549.586C530.579 549.586 531.789 549.792 532.961 550.205C534.132 550.618 535.184 551.266 536.115 552.15C537.047 553.033 537.782 554.181 538.319 555.593C538.857 556.995 539.126 558.699 539.126 560.706V562.233H521.537V559.007H534.905C534.905 557.873 534.675 556.87 534.214 555.996C533.753 555.112 533.105 554.416 532.269 553.907C531.443 553.398 530.473 553.144 529.359 553.144C528.149 553.144 527.093 553.441 526.19 554.037C525.297 554.623 524.606 555.391 524.116 556.342C523.636 557.283 523.396 558.305 523.396 559.41V561.931C523.396 563.41 523.655 564.668 524.174 565.705C524.702 566.742 525.436 567.534 526.378 568.082C527.319 568.62 528.418 568.888 529.676 568.888C530.493 568.888 531.237 568.773 531.909 568.543C532.581 568.303 533.162 567.947 533.652 567.477C534.142 567.006 534.516 566.425 534.776 565.734L538.852 566.468C538.526 567.669 537.94 568.72 537.095 569.623C536.26 570.516 535.208 571.213 533.94 571.712C532.682 572.202 531.247 572.447 529.633 572.447ZM563.041 572.447C560.861 572.447 558.983 571.981 557.408 571.049C555.843 570.108 554.633 568.788 553.778 567.088C552.933 565.378 552.511 563.376 552.511 561.081C552.511 558.814 552.933 556.817 553.778 555.088C554.633 553.36 555.824 552.01 557.351 551.04C558.887 550.071 560.683 549.586 562.738 549.586C563.987 549.586 565.197 549.792 566.369 550.205C567.54 550.618 568.592 551.266 569.523 552.15C570.455 553.033 571.189 554.181 571.727 555.593C572.265 556.995 572.534 558.699 572.534 560.706V562.233H554.945V559.007H568.313C568.313 557.873 568.083 556.87 567.622 555.996C567.161 555.112 566.513 554.416 565.677 553.907C564.851 553.398 563.881 553.144 562.767 553.144C561.557 553.144 560.501 553.441 559.598 554.037C558.705 554.623 558.014 555.391 557.524 556.342C557.044 557.283 556.803 558.305 556.803 559.41V561.931C556.803 563.41 557.063 564.668 557.581 565.705C558.11 566.742 558.844 567.534 559.785 568.082C560.726 568.62 561.826 568.888 563.084 568.888C563.9 568.888 564.645 568.773 565.317 568.543C565.989 568.303 566.57 567.947 567.06 567.477C567.55 567.006 567.924 566.425 568.184 565.734L572.26 566.468C571.934 567.669 571.348 568.72 570.503 569.623C569.667 570.516 568.616 571.213 567.348 571.712C566.09 572.202 564.654 572.447 563.041 572.447ZM579.63 549.874L584.513 558.488L589.44 549.874H594.15L587.25 560.937L594.208 572H589.497L584.513 563.731L579.543 572H574.818L581.704 560.937L574.905 549.874H579.63ZM598.005 580.297V549.874H602.211V553.461H602.571C602.821 553 603.181 552.467 603.651 551.862C604.122 551.257 604.775 550.728 605.61 550.277C606.446 549.816 607.55 549.586 608.924 549.586C610.71 549.586 612.304 550.037 613.706 550.94C615.108 551.842 616.208 553.144 617.005 554.843C617.812 556.543 618.215 558.589 618.215 560.98C618.215 563.371 617.816 565.422 617.019 567.131C616.222 568.831 615.127 570.142 613.735 571.064C612.342 571.976 610.753 572.432 608.967 572.432C607.622 572.432 606.523 572.206 605.668 571.755C604.823 571.304 604.16 570.776 603.68 570.171C603.2 569.566 602.83 569.028 602.571 568.557H602.312V580.297H598.005ZM602.225 560.937C602.225 562.493 602.451 563.856 602.902 565.028C603.354 566.2 604.007 567.117 604.861 567.779C605.716 568.432 606.763 568.759 608.002 568.759C609.289 568.759 610.364 568.418 611.228 567.736C612.093 567.045 612.746 566.108 613.188 564.927C613.639 563.746 613.865 562.416 613.865 560.937C613.865 559.477 613.644 558.166 613.202 557.004C612.77 555.842 612.117 554.925 611.243 554.253C610.379 553.581 609.298 553.244 608.002 553.244C606.753 553.244 605.697 553.566 604.833 554.21C603.978 554.853 603.33 555.751 602.888 556.903C602.446 558.056 602.225 559.4 602.225 560.937ZM626.78 542.498V572H622.473V542.498H626.78ZM641.327 572.447C639.252 572.447 637.442 571.971 635.896 571.02C634.35 570.07 633.149 568.74 632.295 567.03C631.44 565.321 631.013 563.323 631.013 561.038C631.013 558.742 631.44 556.735 632.295 555.016C633.149 553.297 634.35 551.962 635.896 551.012C637.442 550.061 639.252 549.586 641.327 549.586C643.401 549.586 645.211 550.061 646.757 551.012C648.304 551.962 649.504 553.297 650.359 555.016C651.213 556.735 651.641 558.742 651.641 561.038C651.641 563.323 651.213 565.321 650.359 567.03C649.504 568.74 648.304 570.07 646.757 571.02C645.211 571.971 643.401 572.447 641.327 572.447ZM641.341 568.831C642.686 568.831 643.799 568.476 644.683 567.765C645.567 567.054 646.22 566.108 646.642 564.927C647.074 563.746 647.29 562.445 647.29 561.023C647.29 559.612 647.074 558.315 646.642 557.134C646.22 555.943 645.567 554.987 644.683 554.267C643.799 553.547 642.686 553.187 641.341 553.187C639.987 553.187 638.863 553.547 637.97 554.267C637.087 554.987 636.429 555.943 635.997 557.134C635.574 558.315 635.363 559.612 635.363 561.023C635.363 562.445 635.574 563.746 635.997 564.927C636.429 566.108 637.087 567.054 637.97 567.765C638.863 568.476 639.987 568.831 641.341 568.831ZM655.881 572V549.874H660.044V553.389H660.274C660.677 552.198 661.388 551.261 662.406 550.58C663.434 549.888 664.596 549.542 665.892 549.542C666.161 549.542 666.478 549.552 666.843 549.571C667.217 549.59 667.51 549.614 667.722 549.643V553.763C667.549 553.715 667.241 553.662 666.8 553.605C666.358 553.537 665.916 553.504 665.474 553.504C664.456 553.504 663.549 553.72 662.752 554.152C661.964 554.575 661.34 555.165 660.879 555.924C660.418 556.673 660.188 557.528 660.188 558.488V572H655.881ZM677.122 572.49C675.72 572.49 674.452 572.23 673.319 571.712C672.186 571.184 671.288 570.42 670.625 569.421C669.972 568.423 669.646 567.198 669.646 565.748C669.646 564.5 669.886 563.472 670.366 562.665C670.846 561.859 671.494 561.22 672.311 560.75C673.127 560.279 674.039 559.924 675.048 559.684C676.056 559.443 677.084 559.261 678.13 559.136C679.456 558.983 680.531 558.858 681.357 558.762C682.183 558.656 682.783 558.488 683.158 558.257C683.532 558.027 683.72 557.652 683.72 557.134V557.033C683.72 555.775 683.364 554.8 682.654 554.109C681.953 553.417 680.906 553.072 679.513 553.072C678.063 553.072 676.92 553.393 676.085 554.037C675.259 554.671 674.688 555.376 674.371 556.154L670.323 555.232C670.803 553.888 671.504 552.803 672.426 551.977C673.358 551.141 674.428 550.536 675.638 550.162C676.848 549.778 678.121 549.586 679.456 549.586C680.339 549.586 681.276 549.691 682.265 549.902C683.263 550.104 684.195 550.479 685.059 551.026C685.933 551.573 686.649 552.356 687.206 553.374C687.763 554.382 688.041 555.693 688.041 557.307V572H683.835V568.975H683.662C683.384 569.532 682.966 570.079 682.409 570.617C681.852 571.155 681.136 571.601 680.262 571.957C679.389 572.312 678.342 572.49 677.122 572.49ZM678.058 569.033C679.249 569.033 680.267 568.797 681.112 568.327C681.967 567.856 682.615 567.241 683.057 566.483C683.508 565.715 683.734 564.893 683.734 564.02V561.167C683.58 561.321 683.283 561.465 682.841 561.599C682.409 561.724 681.914 561.835 681.357 561.931C680.8 562.017 680.258 562.099 679.729 562.176C679.201 562.243 678.759 562.301 678.404 562.349C677.569 562.454 676.805 562.632 676.114 562.882C675.432 563.131 674.884 563.491 674.472 563.962C674.068 564.423 673.867 565.037 673.867 565.806C673.867 566.872 674.26 567.678 675.048 568.226C675.835 568.764 676.839 569.033 678.058 569.033ZM703.539 549.874V553.331H691.453V549.874H703.539ZM694.694 544.573H699.001V565.503C699.001 566.339 699.126 566.968 699.376 567.39C699.625 567.803 699.947 568.087 700.341 568.24C700.744 568.384 701.181 568.456 701.652 568.456C701.997 568.456 702.3 568.432 702.559 568.384C702.818 568.336 703.02 568.298 703.164 568.269L703.942 571.827C703.692 571.923 703.337 572.019 702.876 572.115C702.415 572.221 701.839 572.279 701.147 572.288C700.014 572.307 698.958 572.106 697.978 571.683C696.999 571.261 696.206 570.607 695.601 569.724C694.996 568.84 694.694 567.731 694.694 566.396V544.573ZM707.735 572V549.874H712.042V572H707.735ZM709.91 546.46C709.161 546.46 708.518 546.21 707.98 545.711C707.452 545.202 707.188 544.597 707.188 543.896C707.188 543.185 707.452 542.58 707.98 542.08C708.518 541.571 709.161 541.317 709.91 541.317C710.66 541.317 711.298 541.571 711.826 542.08C712.364 542.58 712.633 543.185 712.633 543.896C712.633 544.597 712.364 545.202 711.826 545.711C711.298 546.21 710.66 546.46 709.91 546.46ZM726.589 572.447C724.515 572.447 722.705 571.971 721.158 571.02C719.612 570.07 718.412 568.74 717.557 567.03C716.702 565.321 716.275 563.323 716.275 561.038C716.275 558.742 716.702 556.735 717.557 555.016C718.412 553.297 719.612 551.962 721.158 551.012C722.705 550.061 724.515 549.586 726.589 549.586C728.663 549.586 730.474 550.061 732.02 551.012C733.566 551.962 734.766 553.297 735.621 555.016C736.476 556.735 736.903 558.742 736.903 561.038C736.903 563.323 736.476 565.321 735.621 567.03C734.766 568.74 733.566 570.07 732.02 571.02C730.474 571.971 728.663 572.447 726.589 572.447ZM726.604 568.831C727.948 568.831 729.062 568.476 729.946 567.765C730.829 567.054 731.482 566.108 731.905 564.927C732.337 563.746 732.553 562.445 732.553 561.023C732.553 559.612 732.337 558.315 731.905 557.134C731.482 555.943 730.829 554.987 729.946 554.267C729.062 553.547 727.948 553.187 726.604 553.187C725.249 553.187 724.126 553.547 723.233 554.267C722.349 554.987 721.691 555.943 721.259 557.134C720.837 558.315 720.625 559.612 720.625 561.023C720.625 562.445 720.837 563.746 721.259 564.927C721.691 566.108 722.349 567.054 723.233 567.765C724.126 568.476 725.249 568.831 726.604 568.831ZM745.45 558.862V572H741.143V549.874H745.277V553.475H745.551C746.06 552.303 746.857 551.362 747.942 550.652C749.037 549.941 750.415 549.586 752.077 549.586C753.584 549.586 754.905 549.902 756.038 550.536C757.171 551.161 758.05 552.092 758.674 553.331C759.298 554.57 759.61 556.101 759.61 557.926V572H755.303V558.445C755.303 556.841 754.886 555.588 754.05 554.685C753.215 553.773 752.067 553.316 750.607 553.316C749.609 553.316 748.72 553.533 747.942 553.965C747.174 554.397 746.564 555.031 746.113 555.866C745.671 556.692 745.45 557.691 745.45 558.862ZM781.399 555.276L777.496 555.967C777.332 555.468 777.073 554.992 776.718 554.541C776.372 554.09 775.901 553.72 775.306 553.432C774.711 553.144 773.966 553 773.073 553C771.854 553 770.836 553.273 770.019 553.821C769.203 554.358 768.795 555.055 768.795 555.909C768.795 556.649 769.069 557.244 769.616 557.696C770.163 558.147 771.047 558.517 772.267 558.805L775.781 559.612C777.817 560.082 779.335 560.807 780.333 561.787C781.332 562.766 781.832 564.039 781.832 565.604C781.832 566.929 781.447 568.111 780.679 569.148C779.921 570.175 778.859 570.982 777.496 571.568C776.142 572.154 774.571 572.447 772.785 572.447C770.307 572.447 768.286 571.918 766.721 570.862C765.155 569.796 764.195 568.283 763.84 566.324L768.003 565.691C768.262 566.776 768.795 567.597 769.602 568.154C770.408 568.701 771.46 568.975 772.756 568.975C774.168 568.975 775.296 568.682 776.142 568.096C776.987 567.501 777.409 566.776 777.409 565.921C777.409 565.23 777.15 564.649 776.631 564.178C776.122 563.707 775.34 563.352 774.283 563.112L770.538 562.291C768.473 561.82 766.946 561.071 765.957 560.044C764.978 559.016 764.488 557.715 764.488 556.14C764.488 554.834 764.853 553.691 765.583 552.711C766.312 551.732 767.321 550.968 768.608 550.421C769.895 549.864 771.369 549.586 773.03 549.586C775.421 549.586 777.304 550.104 778.677 551.141C780.05 552.169 780.958 553.547 781.399 555.276ZM806.697 549.874V553.331H794.193V549.874H806.697ZM797.622 572V547.31C797.622 545.927 797.924 544.779 798.529 543.867C799.134 542.945 799.936 542.258 800.935 541.807C801.934 541.346 803.019 541.115 804.191 541.115C805.055 541.115 805.794 541.187 806.409 541.331C807.024 541.466 807.48 541.591 807.777 541.706L806.769 545.192C806.567 545.134 806.308 545.067 805.991 544.99C805.674 544.904 805.29 544.861 804.839 544.861C803.792 544.861 803.043 545.12 802.592 545.639C802.15 546.157 801.929 546.906 801.929 547.886V572H797.622ZM819.022 572.447C816.947 572.447 815.137 571.971 813.591 571.02C812.045 570.07 810.844 568.74 809.99 567.03C809.135 565.321 808.708 563.323 808.708 561.038C808.708 558.742 809.135 556.735 809.99 555.016C810.844 553.297 812.045 551.962 813.591 551.012C815.137 550.061 816.947 549.586 819.022 549.586C821.096 549.586 822.906 550.061 824.453 551.012C825.999 551.962 827.199 553.297 828.054 555.016C828.909 556.735 829.336 558.742 829.336 561.038C829.336 563.323 828.909 565.321 828.054 567.03C827.199 568.74 825.999 570.07 824.453 571.02C822.906 571.971 821.096 572.447 819.022 572.447ZM819.036 568.831C820.381 568.831 821.495 568.476 822.378 567.765C823.262 567.054 823.915 566.108 824.337 564.927C824.769 563.746 824.986 562.445 824.986 561.023C824.986 559.612 824.769 558.315 824.337 557.134C823.915 555.943 823.262 554.987 822.378 554.267C821.495 553.547 820.381 553.187 819.036 553.187C817.682 553.187 816.559 553.547 815.665 554.267C814.782 554.987 814.124 555.943 813.692 557.134C813.269 558.315 813.058 559.612 813.058 561.023C813.058 562.445 813.269 563.746 813.692 564.927C814.124 566.108 814.782 567.054 815.665 567.765C816.559 568.476 817.682 568.831 819.036 568.831ZM833.576 572V549.874H837.739V553.389H837.969C838.373 552.198 839.083 551.261 840.101 550.58C841.129 549.888 842.291 549.542 843.587 549.542C843.856 549.542 844.173 549.552 844.538 549.571C844.913 549.59 845.206 549.614 845.417 549.643V553.763C845.244 553.715 844.937 553.662 844.495 553.605C844.053 553.537 843.611 553.504 843.17 553.504C842.152 553.504 841.244 553.72 840.447 554.152C839.66 554.575 839.035 555.165 838.574 555.924C838.113 556.673 837.883 557.528 837.883 558.488V572H833.576ZM85.1784 626.432C83.3922 626.432 81.798 625.976 80.3959 625.064C79.0034 624.142 77.9086 622.831 77.1115 621.131C76.324 619.422 75.9303 617.371 75.9303 614.98C75.9303 612.589 76.3288 610.543 77.1259 608.843C77.9326 607.144 79.037 605.842 80.4391 604.94C81.8412 604.037 83.4306 603.586 85.2072 603.586C86.5805 603.586 87.6849 603.816 88.5204 604.277C89.3655 604.728 90.0186 605.257 90.4795 605.862C90.9501 606.467 91.315 607 91.5743 607.461H91.8336V596.498H96.1408V626H91.9344V622.557H91.5743C91.315 623.028 90.9405 623.566 90.4507 624.171C89.9705 624.776 89.3079 625.304 88.4628 625.755C87.6177 626.206 86.5229 626.432 85.1784 626.432ZM86.1292 622.759C87.368 622.759 88.4148 622.432 89.2695 621.779C90.1338 621.117 90.7868 620.2 91.2286 619.028C91.68 617.856 91.9056 616.493 91.9056 614.937C91.9056 613.4 91.6848 612.056 91.243 610.903C90.8012 609.751 90.153 608.853 89.2983 608.21C88.4436 607.566 87.3872 607.244 86.1292 607.244C84.8327 607.244 83.7523 607.581 82.888 608.253C82.0237 608.925 81.3706 609.842 80.9289 611.004C80.4967 612.166 80.2807 613.477 80.2807 614.937C80.2807 616.416 80.5015 617.746 80.9433 618.927C81.3851 620.108 82.0381 621.045 82.9024 621.736C83.7763 622.418 84.8519 622.759 86.1292 622.759ZM111.256 626.447C109.076 626.447 107.199 625.981 105.624 625.049C104.059 624.108 102.849 622.788 101.994 621.088C101.149 619.378 100.726 617.376 100.726 615.081C100.726 612.814 101.149 610.817 101.994 609.088C102.849 607.36 104.039 606.01 105.566 605.04C107.103 604.071 108.899 603.586 110.954 603.586C112.202 603.586 113.412 603.792 114.584 604.205C115.756 604.618 116.807 605.266 117.739 606.15C118.67 607.033 119.405 608.181 119.943 609.593C120.481 610.995 120.749 612.699 120.749 614.706V616.233H103.161V613.007H116.529C116.529 611.873 116.298 610.87 115.837 609.996C115.376 609.112 114.728 608.416 113.893 607.907C113.067 607.398 112.097 607.144 110.983 607.144C109.773 607.144 108.716 607.441 107.814 608.037C106.921 608.623 106.229 609.391 105.739 610.342C105.259 611.283 105.019 612.305 105.019 613.41V615.931C105.019 617.41 105.278 618.668 105.797 619.705C106.325 620.742 107.06 621.534 108.001 622.082C108.942 622.62 110.042 622.888 111.3 622.888C112.116 622.888 112.86 622.773 113.532 622.543C114.205 622.303 114.786 621.947 115.276 621.477C115.765 621.006 116.14 620.425 116.399 619.734L120.476 620.468C120.149 621.669 119.563 622.72 118.718 623.623C117.883 624.516 116.831 625.213 115.564 625.712C114.306 626.202 112.87 626.447 111.256 626.447ZM141.541 609.276L137.637 609.967C137.474 609.468 137.214 608.992 136.859 608.541C136.513 608.09 136.043 607.72 135.447 607.432C134.852 607.144 134.108 607 133.215 607C131.995 607 130.977 607.273 130.161 607.821C129.344 608.358 128.936 609.055 128.936 609.909C128.936 610.649 129.21 611.244 129.757 611.696C130.305 612.147 131.188 612.517 132.408 612.805L135.923 613.612C137.959 614.082 139.476 614.807 140.475 615.787C141.474 616.766 141.973 618.039 141.973 619.604C141.973 620.929 141.589 622.111 140.821 623.148C140.062 624.175 139.001 624.982 137.637 625.568C136.283 626.154 134.713 626.447 132.927 626.447C130.449 626.447 128.427 625.918 126.862 624.862C125.297 623.796 124.336 622.283 123.981 620.324L128.144 619.691C128.403 620.776 128.936 621.597 129.743 622.154C130.55 622.701 131.601 622.975 132.898 622.975C134.309 622.975 135.438 622.682 136.283 622.096C137.128 621.501 137.551 620.776 137.551 619.921C137.551 619.23 137.291 618.649 136.773 618.178C136.264 617.707 135.481 617.352 134.425 617.112L130.679 616.291C128.615 615.82 127.088 615.071 126.099 614.044C125.119 613.016 124.629 611.715 124.629 610.14C124.629 608.834 124.994 607.691 125.724 606.711C126.454 605.732 127.462 604.968 128.749 604.421C130.036 603.864 131.51 603.586 133.171 603.586C135.563 603.586 137.445 604.104 138.818 605.141C140.192 606.169 141.099 607.547 141.541 609.276ZM146.141 626V603.874H150.448V626H146.141ZM148.316 600.46C147.567 600.46 146.923 600.21 146.386 599.711C145.857 599.202 145.593 598.597 145.593 597.896C145.593 597.185 145.857 596.58 146.386 596.08C146.923 595.571 147.567 595.317 148.316 595.317C149.065 595.317 149.704 595.571 150.232 596.08C150.77 596.58 151.039 597.185 151.039 597.896C151.039 598.597 150.77 599.202 150.232 599.711C149.704 600.21 149.065 600.46 148.316 600.46ZM164.951 634.758C163.194 634.758 161.681 634.528 160.414 634.067C159.156 633.606 158.128 632.996 157.331 632.237C156.534 631.479 155.939 630.648 155.545 629.745L159.247 628.218C159.506 628.641 159.852 629.088 160.284 629.558C160.726 630.038 161.321 630.446 162.07 630.783C162.829 631.119 163.804 631.287 164.995 631.287C166.627 631.287 167.977 630.888 169.043 630.091C170.109 629.304 170.641 628.046 170.641 626.317V621.967H170.368C170.109 622.437 169.734 622.961 169.244 623.537C168.764 624.113 168.101 624.612 167.256 625.035C166.411 625.457 165.312 625.669 163.957 625.669C162.21 625.669 160.635 625.261 159.233 624.444C157.84 623.618 156.736 622.404 155.919 620.8C155.113 619.186 154.709 617.203 154.709 614.85C154.709 612.498 155.108 610.481 155.905 608.8C156.712 607.12 157.816 605.833 159.218 604.94C160.62 604.037 162.21 603.586 163.986 603.586C165.36 603.586 166.469 603.816 167.314 604.277C168.159 604.728 168.817 605.257 169.287 605.862C169.768 606.467 170.137 607 170.397 607.461H170.714V603.874H174.934V626.49C174.934 628.391 174.492 629.952 173.609 631.171C172.725 632.391 171.53 633.294 170.022 633.88C168.524 634.465 166.834 634.758 164.951 634.758ZM164.908 622.096C166.147 622.096 167.194 621.808 168.049 621.232C168.913 620.646 169.566 619.811 170.008 618.725C170.459 617.631 170.685 616.32 170.685 614.793C170.685 613.304 170.464 611.993 170.022 610.86C169.58 609.727 168.932 608.843 168.077 608.21C167.223 607.566 166.166 607.244 164.908 607.244C163.612 607.244 162.531 607.581 161.667 608.253C160.803 608.915 160.15 609.818 159.708 610.961C159.276 612.104 159.06 613.381 159.06 614.793C159.06 616.243 159.281 617.515 159.722 618.61C160.164 619.705 160.817 620.56 161.681 621.174C162.555 621.789 163.631 622.096 164.908 622.096ZM184.45 612.862V626H180.143V603.874H184.277V607.475H184.551C185.06 606.303 185.857 605.362 186.942 604.652C188.037 603.941 189.415 603.586 191.076 603.586C192.584 603.586 193.905 603.902 195.038 604.536C196.171 605.161 197.05 606.092 197.674 607.331C198.298 608.57 198.61 610.101 198.61 611.926V626H194.303V612.445C194.303 610.841 193.885 609.588 193.05 608.685C192.214 607.773 191.067 607.316 189.607 607.316C188.608 607.316 187.72 607.533 186.942 607.965C186.174 608.397 185.564 609.031 185.113 609.866C184.671 610.692 184.45 611.691 184.45 612.862ZM220.425 626.49C219.023 626.49 217.756 626.23 216.622 625.712C215.489 625.184 214.591 624.42 213.929 623.421C213.276 622.423 212.949 621.198 212.949 619.748C212.949 618.5 213.189 617.472 213.669 616.665C214.15 615.859 214.798 615.22 215.614 614.75C216.43 614.279 217.343 613.924 218.351 613.684C219.359 613.443 220.387 613.261 221.434 613.136C222.759 612.983 223.835 612.858 224.661 612.762C225.486 612.656 226.087 612.488 226.461 612.257C226.836 612.027 227.023 611.652 227.023 611.134V611.033C227.023 609.775 226.668 608.8 225.957 608.109C225.256 607.417 224.209 607.072 222.817 607.072C221.367 607.072 220.224 607.393 219.388 608.037C218.562 608.671 217.991 609.376 217.674 610.154L213.626 609.232C214.106 607.888 214.807 606.803 215.729 605.977C216.661 605.141 217.732 604.536 218.942 604.162C220.152 603.778 221.424 603.586 222.759 603.586C223.643 603.586 224.579 603.691 225.568 603.902C226.567 604.104 227.498 604.479 228.363 605.026C229.237 605.573 229.952 606.356 230.509 607.374C231.066 608.382 231.345 609.693 231.345 611.307V626H227.138V622.975H226.965C226.687 623.532 226.269 624.079 225.712 624.617C225.155 625.155 224.44 625.601 223.566 625.957C222.692 626.312 221.645 626.49 220.425 626.49ZM221.362 623.033C222.553 623.033 223.571 622.797 224.416 622.327C225.27 621.856 225.919 621.241 226.36 620.483C226.812 619.715 227.037 618.893 227.037 618.02V615.167C226.884 615.321 226.586 615.465 226.144 615.599C225.712 615.724 225.218 615.835 224.661 615.931C224.104 616.017 223.561 616.099 223.033 616.176C222.505 616.243 222.063 616.301 221.708 616.349C220.872 616.454 220.109 616.632 219.417 616.882C218.735 617.131 218.188 617.491 217.775 617.962C217.372 618.423 217.17 619.037 217.17 619.806C217.17 620.872 217.564 621.678 218.351 622.226C219.139 622.764 220.142 623.033 221.362 623.033ZM240.821 612.862V626H236.514V603.874H240.648V607.475H240.922C241.431 606.303 242.228 605.362 243.313 604.652C244.408 603.941 245.786 603.586 247.447 603.586C248.955 603.586 250.275 603.902 251.408 604.536C252.542 605.161 253.42 606.092 254.045 607.331C254.669 608.57 254.981 610.101 254.981 611.926V626H250.674V612.445C250.674 610.841 250.256 609.588 249.421 608.685C248.585 607.773 247.437 607.316 245.978 607.316C244.979 607.316 244.091 607.533 243.313 607.965C242.545 608.397 241.935 609.031 241.483 609.866C241.042 610.692 240.821 611.691 240.821 612.862ZM268.473 626.432C266.686 626.432 265.092 625.976 263.69 625.064C262.297 624.142 261.203 622.831 260.406 621.131C259.618 619.422 259.224 617.371 259.224 614.98C259.224 612.589 259.623 610.543 260.42 608.843C261.227 607.144 262.331 605.842 263.733 604.94C265.135 604.037 266.725 603.586 268.501 603.586C269.875 603.586 270.979 603.816 271.815 604.277C272.66 604.728 273.313 605.257 273.774 605.862C274.244 606.467 274.609 607 274.868 607.461H275.128V596.498H279.435V626H275.229V622.557H274.868C274.609 623.028 274.235 623.566 273.745 624.171C273.265 624.776 272.602 625.304 271.757 625.755C270.912 626.206 269.817 626.432 268.473 626.432ZM269.423 622.759C270.662 622.759 271.709 622.432 272.564 621.779C273.428 621.117 274.081 620.2 274.523 619.028C274.974 617.856 275.2 616.493 275.2 614.937C275.2 613.4 274.979 612.056 274.537 610.903C274.095 609.751 273.447 608.853 272.592 608.21C271.738 607.566 270.681 607.244 269.423 607.244C268.127 607.244 267.046 607.581 266.182 608.253C265.318 608.925 264.665 609.842 264.223 611.004C263.791 612.166 263.575 613.477 263.575 614.937C263.575 616.416 263.796 617.746 264.237 618.927C264.679 620.108 265.332 621.045 266.196 621.736C267.07 622.418 268.146 622.759 269.423 622.759ZM303.465 626.432C301.679 626.432 300.084 625.976 298.682 625.064C297.29 624.142 296.195 622.831 295.398 621.131C294.61 619.422 294.217 617.371 294.217 614.98C294.217 612.589 294.615 610.543 295.412 608.843C296.219 607.144 297.323 605.842 298.726 604.94C300.128 604.037 301.717 603.586 303.494 603.586C304.867 603.586 305.971 603.816 306.807 604.277C307.652 604.728 308.305 605.257 308.766 605.862C309.237 606.467 309.601 607 309.861 607.461H310.12V596.498H314.427V626H310.221V622.557H309.861C309.601 623.028 309.227 623.566 308.737 624.171C308.257 624.776 307.594 625.304 306.749 625.755C305.904 626.206 304.809 626.432 303.465 626.432ZM304.416 622.759C305.654 622.759 306.701 622.432 307.556 621.779C308.42 621.117 309.073 620.2 309.515 619.028C309.966 617.856 310.192 616.493 310.192 614.937C310.192 613.4 309.971 612.056 309.529 610.903C309.088 609.751 308.439 608.853 307.585 608.21C306.73 607.566 305.674 607.244 304.416 607.244C303.119 607.244 302.039 607.581 301.174 608.253C300.31 608.925 299.657 609.842 299.215 611.004C298.783 612.166 298.567 613.477 298.567 614.937C298.567 616.416 298.788 617.746 299.23 618.927C299.672 620.108 300.325 621.045 301.189 621.736C302.063 622.418 303.138 622.759 304.416 622.759ZM329.543 626.447C327.363 626.447 325.485 625.981 323.911 625.049C322.345 624.108 321.135 622.788 320.28 621.088C319.435 619.378 319.013 617.376 319.013 615.081C319.013 612.814 319.435 610.817 320.28 609.088C321.135 607.36 322.326 606.01 323.853 605.04C325.389 604.071 327.185 603.586 329.24 603.586C330.489 603.586 331.699 603.792 332.871 604.205C334.042 604.618 335.094 605.266 336.025 606.15C336.957 607.033 337.691 608.181 338.229 609.593C338.767 610.995 339.036 612.699 339.036 614.706V616.233H321.447V613.007H334.815C334.815 611.873 334.585 610.87 334.124 609.996C333.663 609.112 333.015 608.416 332.179 607.907C331.353 607.398 330.383 607.144 329.269 607.144C328.059 607.144 327.003 607.441 326.1 608.037C325.207 608.623 324.516 609.391 324.026 610.342C323.546 611.283 323.305 612.305 323.305 613.41V615.931C323.305 617.41 323.565 618.668 324.083 619.705C324.612 620.742 325.346 621.534 326.287 622.082C327.229 622.62 328.328 622.888 329.586 622.888C330.402 622.888 331.147 622.773 331.819 622.543C332.491 622.303 333.072 621.947 333.562 621.477C334.052 621.006 334.426 620.425 334.686 619.734L338.762 620.468C338.436 621.669 337.85 622.72 337.005 623.623C336.169 624.516 335.118 625.213 333.85 625.712C332.592 626.202 331.156 626.447 329.543 626.447ZM361.542 603.874L353.518 626H348.908L340.87 603.874H345.494L351.098 620.901H351.328L356.917 603.874H361.542ZM373.805 626.447C371.625 626.447 369.748 625.981 368.173 625.049C366.607 624.108 365.397 622.788 364.542 621.088C363.697 619.378 363.275 617.376 363.275 615.081C363.275 612.814 363.697 610.817 364.542 609.088C365.397 607.36 366.588 606.01 368.115 605.04C369.652 604.071 371.447 603.586 373.503 603.586C374.751 603.586 375.961 603.792 377.133 604.205C378.304 604.618 379.356 605.266 380.287 606.15C381.219 607.033 381.954 608.181 382.491 609.593C383.029 610.995 383.298 612.699 383.298 614.706V616.233H365.709V613.007H379.077C379.077 611.873 378.847 610.87 378.386 609.996C377.925 609.112 377.277 608.416 376.441 607.907C375.615 607.398 374.645 607.144 373.531 607.144C372.321 607.144 371.265 607.441 370.362 608.037C369.469 608.623 368.778 609.391 368.288 610.342C367.808 611.283 367.568 612.305 367.568 613.41V615.931C367.568 617.41 367.827 618.668 368.345 619.705C368.874 620.742 369.608 621.534 370.549 622.082C371.491 622.62 372.59 622.888 373.848 622.888C374.665 622.888 375.409 622.773 376.081 622.543C376.753 622.303 377.334 621.947 377.824 621.477C378.314 621.006 378.688 620.425 378.948 619.734L383.024 620.468C382.698 621.669 382.112 622.72 381.267 623.623C380.431 624.516 379.38 625.213 378.112 625.712C376.854 626.202 375.418 626.447 373.805 626.447ZM391.816 596.498V626H387.509V596.498H391.816ZM406.363 626.447C404.289 626.447 402.478 625.971 400.932 625.02C399.386 624.07 398.186 622.74 397.331 621.03C396.476 619.321 396.049 617.323 396.049 615.038C396.049 612.742 396.476 610.735 397.331 609.016C398.186 607.297 399.386 605.962 400.932 605.012C402.478 604.061 404.289 603.586 406.363 603.586C408.437 603.586 410.247 604.061 411.794 605.012C413.34 605.962 414.54 607.297 415.395 609.016C416.25 610.735 416.677 612.742 416.677 615.038C416.677 617.323 416.25 619.321 415.395 621.03C414.54 622.74 413.34 624.07 411.794 625.02C410.247 625.971 408.437 626.447 406.363 626.447ZM406.377 622.831C407.722 622.831 408.836 622.476 409.719 621.765C410.603 621.054 411.256 620.108 411.678 618.927C412.111 617.746 412.327 616.445 412.327 615.023C412.327 613.612 412.111 612.315 411.678 611.134C411.256 609.943 410.603 608.987 409.719 608.267C408.836 607.547 407.722 607.187 406.377 607.187C405.023 607.187 403.9 607.547 403.006 608.267C402.123 608.987 401.465 609.943 401.033 611.134C400.61 612.315 400.399 613.612 400.399 615.023C400.399 616.445 400.61 617.746 401.033 618.927C401.465 620.108 402.123 621.054 403.006 621.765C403.9 622.476 405.023 622.831 406.377 622.831ZM420.917 634.297V603.874H425.123V607.461H425.483C425.733 607 426.093 606.467 426.564 605.862C427.034 605.257 427.687 604.728 428.523 604.277C429.358 603.816 430.463 603.586 431.836 603.586C433.622 603.586 435.216 604.037 436.618 604.94C438.021 605.842 439.12 607.144 439.917 608.843C440.724 610.543 441.127 612.589 441.127 614.98C441.127 617.371 440.729 619.422 439.932 621.131C439.135 622.831 438.04 624.142 436.647 625.064C435.255 625.976 433.665 626.432 431.879 626.432C430.535 626.432 429.435 626.206 428.58 625.755C427.735 625.304 427.073 624.776 426.592 624.171C426.112 623.566 425.743 623.028 425.483 622.557H425.224V634.297H420.917ZM425.138 614.937C425.138 616.493 425.363 617.856 425.815 619.028C426.266 620.2 426.919 621.117 427.774 621.779C428.628 622.432 429.675 622.759 430.914 622.759C432.201 622.759 433.276 622.418 434.141 621.736C435.005 621.045 435.658 620.108 436.1 618.927C436.551 617.746 436.777 616.416 436.777 614.937C436.777 613.477 436.556 612.166 436.114 611.004C435.682 609.842 435.029 608.925 434.155 608.253C433.291 607.581 432.21 607.244 430.914 607.244C429.666 607.244 428.609 607.566 427.745 608.21C426.89 608.853 426.242 609.751 425.8 610.903C425.358 612.056 425.138 613.4 425.138 614.937ZM454.921 626.447C452.741 626.447 450.864 625.981 449.289 625.049C447.724 624.108 446.514 622.788 445.659 621.088C444.814 619.378 444.391 617.376 444.391 615.081C444.391 612.814 444.814 610.817 445.659 609.088C446.514 607.36 447.704 606.01 449.231 605.04C450.768 604.071 452.564 603.586 454.619 603.586C455.867 603.586 457.077 603.792 458.249 604.205C459.421 604.618 460.472 605.266 461.404 606.15C462.335 607.033 463.07 608.181 463.608 609.593C464.145 610.995 464.414 612.699 464.414 614.706V616.233H446.826V613.007H460.194C460.194 611.873 459.963 610.87 459.502 609.996C459.041 609.112 458.393 608.416 457.557 607.907C456.732 607.398 455.762 607.144 454.648 607.144C453.438 607.144 452.381 607.441 451.479 608.037C450.585 608.623 449.894 609.391 449.404 610.342C448.924 611.283 448.684 612.305 448.684 613.41V615.931C448.684 617.41 448.943 618.668 449.462 619.705C449.99 620.742 450.725 621.534 451.666 622.082C452.607 622.62 453.707 622.888 454.965 622.888C455.781 622.888 456.525 622.773 457.197 622.543C457.87 622.303 458.451 621.947 458.94 621.477C459.43 621.006 459.805 620.425 460.064 619.734L464.141 620.468C463.814 621.669 463.228 622.72 462.383 623.623C461.548 624.516 460.496 625.213 459.228 625.712C457.97 626.202 456.535 626.447 454.921 626.447ZM468.625 626V603.874H472.76V607.475H473.033C473.494 606.255 474.248 605.305 475.295 604.623C476.342 603.931 477.595 603.586 479.055 603.586C480.534 603.586 481.772 603.931 482.771 604.623C483.78 605.314 484.524 606.265 485.004 607.475H485.235C485.763 606.294 486.603 605.353 487.755 604.652C488.908 603.941 490.281 603.586 491.875 603.586C493.882 603.586 495.52 604.215 496.787 605.473C498.065 606.731 498.703 608.627 498.703 611.163V626H494.396V611.566C494.396 610.068 493.988 608.983 493.172 608.31C492.355 607.638 491.381 607.302 490.248 607.302C488.845 607.302 487.755 607.734 486.978 608.599C486.2 609.453 485.811 610.553 485.811 611.897V626H481.518V611.292C481.518 610.092 481.143 609.127 480.394 608.397C479.645 607.667 478.671 607.302 477.47 607.302C476.654 607.302 475.9 607.518 475.209 607.95C474.527 608.373 473.974 608.963 473.552 609.722C473.139 610.481 472.933 611.36 472.933 612.358V626H468.625ZM513.445 626.447C511.265 626.447 509.387 625.981 507.812 625.049C506.247 624.108 505.037 622.788 504.182 621.088C503.337 619.378 502.914 617.376 502.914 615.081C502.914 612.814 503.337 610.817 504.182 609.088C505.037 607.36 506.228 606.01 507.755 605.04C509.291 604.071 511.087 603.586 513.142 603.586C514.39 603.586 515.601 603.792 516.772 604.205C517.944 604.618 518.995 605.266 519.927 606.15C520.858 607.033 521.593 608.181 522.131 609.593C522.669 610.995 522.938 612.699 522.938 614.706V616.233H505.349V613.007H518.717C518.717 611.873 518.486 610.87 518.025 609.996C517.564 609.112 516.916 608.416 516.081 607.907C515.255 607.398 514.285 607.144 513.171 607.144C511.961 607.144 510.904 607.441 510.002 608.037C509.109 608.623 508.417 609.391 507.927 610.342C507.447 611.283 507.207 612.305 507.207 613.41V615.931C507.207 617.41 507.466 618.668 507.985 619.705C508.513 620.742 509.248 621.534 510.189 622.082C511.13 622.62 512.23 622.888 513.488 622.888C514.304 622.888 515.048 622.773 515.721 622.543C516.393 622.303 516.974 621.947 517.464 621.477C517.953 621.006 518.328 620.425 518.587 619.734L522.664 620.468C522.337 621.669 521.752 622.72 520.906 623.623C520.071 624.516 519.019 625.213 517.752 625.712C516.494 626.202 515.058 626.447 513.445 626.447ZM531.456 612.862V626H527.149V603.874H531.283V607.475H531.557C532.066 606.303 532.863 605.362 533.948 604.652C535.043 603.941 536.421 603.586 538.082 603.586C539.59 603.586 540.91 603.902 542.044 604.536C543.177 605.161 544.055 606.092 544.68 607.331C545.304 608.57 545.616 610.101 545.616 611.926V626H541.309V612.445C541.309 610.841 540.891 609.588 540.056 608.685C539.22 607.773 538.073 607.316 536.613 607.316C535.614 607.316 534.726 607.533 533.948 607.965C533.18 608.397 532.57 609.031 532.118 609.866C531.677 610.692 531.456 611.691 531.456 612.862ZM561.153 603.874V607.331H549.067V603.874H561.153ZM552.308 598.573H556.615V619.503C556.615 620.339 556.74 620.968 556.99 621.39C557.24 621.803 557.561 622.087 557.955 622.24C558.358 622.384 558.795 622.456 559.266 622.456C559.612 622.456 559.914 622.432 560.174 622.384C560.433 622.336 560.635 622.298 560.779 622.269L561.556 625.827C561.307 625.923 560.951 626.019 560.49 626.115C560.029 626.221 559.453 626.279 558.762 626.288C557.629 626.307 556.572 626.106 555.593 625.683C554.613 625.261 553.821 624.607 553.216 623.724C552.611 622.84 552.308 621.731 552.308 620.396V598.573Z" fill="white"/>
<path d="M80.0682 515V445.182H126.295V457.352H94.8295V473.989H123.227V486.159H94.8295V515H80.0682ZM135.952 515V462.636H150.474V515H135.952ZM143.247 455.886C141.088 455.886 139.236 455.17 137.69 453.739C136.168 452.284 135.406 450.545 135.406 448.523C135.406 446.523 136.168 444.807 137.69 443.375C139.236 441.92 141.088 441.193 143.247 441.193C145.406 441.193 147.247 441.92 148.77 443.375C150.315 444.807 151.088 446.523 151.088 448.523C151.088 450.545 150.315 452.284 148.77 453.739C147.247 455.17 145.406 455.886 143.247 455.886ZM185.699 535.727C180.994 535.727 176.96 535.08 173.597 533.784C170.256 532.511 167.597 530.773 165.619 528.568C163.642 526.364 162.358 523.886 161.767 521.136L175.199 519.33C175.608 520.375 176.256 521.352 177.142 522.261C178.028 523.17 179.199 523.898 180.653 524.443C182.131 525.011 183.926 525.295 186.04 525.295C189.199 525.295 191.801 524.523 193.847 522.977C195.915 521.455 196.949 518.898 196.949 515.307V505.727H196.335C195.699 507.182 194.744 508.557 193.472 509.852C192.199 511.148 190.562 512.205 188.562 513.023C186.562 513.841 184.176 514.25 181.403 514.25C177.472 514.25 173.892 513.341 170.665 511.523C167.46 509.682 164.903 506.875 162.994 503.102C161.108 499.307 160.165 494.511 160.165 488.716C160.165 482.784 161.131 477.83 163.062 473.852C164.994 469.875 167.563 466.898 170.767 464.92C173.994 462.943 177.528 461.955 181.369 461.955C184.301 461.955 186.756 462.455 188.733 463.455C190.71 464.432 192.301 465.659 193.506 467.136C194.733 468.591 195.676 470.023 196.335 471.432H196.881V462.636H211.301V515.511C211.301 519.966 210.21 523.693 208.028 526.693C205.847 529.693 202.824 531.943 198.96 533.443C195.119 534.966 190.699 535.727 185.699 535.727ZM186.006 503.341C188.347 503.341 190.324 502.761 191.938 501.602C193.574 500.42 194.824 498.739 195.688 496.557C196.574 494.352 197.017 491.716 197.017 488.648C197.017 485.58 196.585 482.92 195.722 480.67C194.858 478.398 193.608 476.636 191.972 475.386C190.335 474.136 188.347 473.511 186.006 473.511C183.619 473.511 181.608 474.159 179.972 475.455C178.335 476.727 177.097 478.5 176.256 480.773C175.415 483.045 174.994 485.67 174.994 488.648C174.994 491.67 175.415 494.284 176.256 496.489C177.119 498.67 178.358 500.364 179.972 501.568C181.608 502.75 183.619 503.341 186.006 503.341ZM222.858 515V462.636H236.699V471.875H237.312C238.403 468.807 240.222 466.386 242.767 464.614C245.312 462.841 248.358 461.955 251.903 461.955C255.494 461.955 258.551 462.852 261.074 464.648C263.597 466.42 265.278 468.83 266.119 471.875H266.665C267.733 468.875 269.665 466.477 272.46 464.682C275.278 462.864 278.608 461.955 282.449 461.955C287.335 461.955 291.301 463.511 294.347 466.625C297.415 469.716 298.949 474.102 298.949 479.784V515H284.46V482.648C284.46 479.739 283.688 477.557 282.142 476.102C280.597 474.648 278.665 473.92 276.347 473.92C273.71 473.92 271.653 474.761 270.176 476.443C268.699 478.102 267.96 480.295 267.96 483.023V515H253.881V482.341C253.881 479.773 253.142 477.727 251.665 476.205C250.21 474.682 248.29 473.92 245.903 473.92C244.29 473.92 242.835 474.33 241.54 475.148C240.267 475.943 239.256 477.068 238.506 478.523C237.756 479.955 237.381 481.636 237.381 483.568V515H222.858ZM325.352 515.989C322.011 515.989 319.034 515.409 316.42 514.25C313.807 513.068 311.739 511.33 310.216 509.034C308.716 506.716 307.966 503.83 307.966 500.375C307.966 497.466 308.5 495.023 309.568 493.045C310.636 491.068 312.091 489.477 313.932 488.273C315.773 487.068 317.864 486.159 320.205 485.545C322.568 484.932 325.045 484.5 327.636 484.25C330.682 483.932 333.136 483.636 335 483.364C336.864 483.068 338.216 482.636 339.057 482.068C339.898 481.5 340.318 480.659 340.318 479.545V479.341C340.318 477.182 339.636 475.511 338.273 474.33C336.932 473.148 335.023 472.557 332.545 472.557C329.932 472.557 327.852 473.136 326.307 474.295C324.761 475.432 323.739 476.864 323.239 478.591L309.807 477.5C310.489 474.318 311.83 471.568 313.83 469.25C315.83 466.909 318.409 465.114 321.568 463.864C324.75 462.591 328.432 461.955 332.614 461.955C335.523 461.955 338.307 462.295 340.966 462.977C343.648 463.659 346.023 464.716 348.091 466.148C350.182 467.58 351.83 469.42 353.034 471.67C354.239 473.898 354.841 476.568 354.841 479.682V515H341.068V507.739H340.659C339.818 509.375 338.693 510.818 337.284 512.068C335.875 513.295 334.182 514.261 332.205 514.966C330.227 515.648 327.943 515.989 325.352 515.989ZM329.511 505.966C331.648 505.966 333.534 505.545 335.17 504.705C336.807 503.841 338.091 502.682 339.023 501.227C339.955 499.773 340.42 498.125 340.42 496.284V490.727C339.966 491.023 339.341 491.295 338.545 491.545C337.773 491.773 336.898 491.989 335.92 492.193C334.943 492.375 333.966 492.545 332.989 492.705C332.011 492.841 331.125 492.966 330.33 493.08C328.625 493.33 327.136 493.727 325.864 494.273C324.591 494.818 323.602 495.557 322.898 496.489C322.193 497.398 321.841 498.534 321.841 499.898C321.841 501.875 322.557 503.386 323.989 504.432C325.443 505.455 327.284 505.966 329.511 505.966ZM401.213 445.182L418.088 498.227H418.736L435.645 445.182H452.009L427.94 515H408.918L384.815 445.182H401.213ZM469.259 515.989C465.918 515.989 462.94 515.409 460.327 514.25C457.713 513.068 455.645 511.33 454.122 509.034C452.622 506.716 451.872 503.83 451.872 500.375C451.872 497.466 452.406 495.023 453.474 493.045C454.543 491.068 455.997 489.477 457.838 488.273C459.679 487.068 461.77 486.159 464.111 485.545C466.474 484.932 468.952 484.5 471.543 484.25C474.588 483.932 477.043 483.636 478.906 483.364C480.77 483.068 482.122 482.636 482.963 482.068C483.804 481.5 484.224 480.659 484.224 479.545V479.341C484.224 477.182 483.543 475.511 482.179 474.33C480.838 473.148 478.929 472.557 476.452 472.557C473.838 472.557 471.759 473.136 470.213 474.295C468.668 475.432 467.645 476.864 467.145 478.591L453.713 477.5C454.395 474.318 455.736 471.568 457.736 469.25C459.736 466.909 462.315 465.114 465.474 463.864C468.656 462.591 472.338 461.955 476.52 461.955C479.429 461.955 482.213 462.295 484.872 462.977C487.554 463.659 489.929 464.716 491.997 466.148C494.088 467.58 495.736 469.42 496.94 471.67C498.145 473.898 498.747 476.568 498.747 479.682V515H484.974V507.739H484.565C483.724 509.375 482.599 510.818 481.19 512.068C479.781 513.295 478.088 514.261 476.111 514.966C474.134 515.648 471.849 515.989 469.259 515.989ZM473.418 505.966C475.554 505.966 477.44 505.545 479.077 504.705C480.713 503.841 481.997 502.682 482.929 501.227C483.861 499.773 484.327 498.125 484.327 496.284V490.727C483.872 491.023 483.247 491.295 482.452 491.545C481.679 491.773 480.804 491.989 479.827 492.193C478.849 492.375 477.872 492.545 476.895 492.705C475.918 492.841 475.031 492.966 474.236 493.08C472.531 493.33 471.043 493.727 469.77 494.273C468.497 494.818 467.509 495.557 466.804 496.489C466.099 497.398 465.747 498.534 465.747 499.898C465.747 501.875 466.463 503.386 467.895 504.432C469.349 505.455 471.19 505.966 473.418 505.966ZM510.014 515V462.636H524.094V471.773H524.639C525.594 468.523 527.196 466.068 529.446 464.409C531.696 462.727 534.287 461.886 537.219 461.886C537.946 461.886 538.73 461.932 539.571 462.023C540.412 462.114 541.151 462.239 541.787 462.398V475.284C541.105 475.08 540.162 474.898 538.957 474.739C537.753 474.58 536.651 474.5 535.651 474.5C533.514 474.5 531.605 474.966 529.923 475.898C528.264 476.807 526.946 478.08 525.969 479.716C525.014 481.352 524.537 483.239 524.537 485.375V515H510.014ZM549.295 515V462.636H563.818V515H549.295ZM556.591 455.886C554.432 455.886 552.58 455.17 551.034 453.739C549.511 452.284 548.75 450.545 548.75 448.523C548.75 446.523 549.511 444.807 551.034 443.375C552.58 441.92 554.432 441.193 556.591 441.193C558.75 441.193 560.591 441.92 562.114 443.375C563.659 444.807 564.432 446.523 564.432 448.523C564.432 450.545 563.659 452.284 562.114 453.739C560.591 455.17 558.75 455.886 556.591 455.886ZM590.384 515.989C587.043 515.989 584.065 515.409 581.452 514.25C578.838 513.068 576.77 511.33 575.247 509.034C573.747 506.716 572.997 503.83 572.997 500.375C572.997 497.466 573.531 495.023 574.599 493.045C575.668 491.068 577.122 489.477 578.963 488.273C580.804 487.068 582.895 486.159 585.236 485.545C587.599 484.932 590.077 484.5 592.668 484.25C595.713 483.932 598.168 483.636 600.031 483.364C601.895 483.068 603.247 482.636 604.088 482.068C604.929 481.5 605.349 480.659 605.349 479.545V479.341C605.349 477.182 604.668 475.511 603.304 474.33C601.963 473.148 600.054 472.557 597.577 472.557C594.963 472.557 592.884 473.136 591.338 474.295C589.793 475.432 588.77 476.864 588.27 478.591L574.838 477.5C575.52 474.318 576.861 471.568 578.861 469.25C580.861 466.909 583.44 465.114 586.599 463.864C589.781 462.591 593.463 461.955 597.645 461.955C600.554 461.955 603.338 462.295 605.997 462.977C608.679 463.659 611.054 464.716 613.122 466.148C615.213 467.58 616.861 469.42 618.065 471.67C619.27 473.898 619.872 476.568 619.872 479.682V515H606.099V507.739H605.69C604.849 509.375 603.724 510.818 602.315 512.068C600.906 513.295 599.213 514.261 597.236 514.966C595.259 515.648 592.974 515.989 590.384 515.989ZM594.543 505.966C596.679 505.966 598.565 505.545 600.202 504.705C601.838 503.841 603.122 502.682 604.054 501.227C604.986 499.773 605.452 498.125 605.452 496.284V490.727C604.997 491.023 604.372 491.295 603.577 491.545C602.804 491.773 601.929 491.989 600.952 492.193C599.974 492.375 598.997 492.545 598.02 492.705C597.043 492.841 596.156 492.966 595.361 493.08C593.656 493.33 592.168 493.727 590.895 494.273C589.622 494.818 588.634 495.557 587.929 496.489C587.224 497.398 586.872 498.534 586.872 499.898C586.872 501.875 587.588 503.386 589.02 504.432C590.474 505.455 592.315 505.966 594.543 505.966ZM631.412 515V445.182H645.935V471.432H646.378C647.014 470.023 647.935 468.591 649.139 467.136C650.366 465.659 651.957 464.432 653.912 463.455C655.889 462.455 658.344 461.955 661.276 461.955C665.094 461.955 668.616 462.955 671.844 464.955C675.071 466.932 677.651 469.92 679.582 473.92C681.514 477.898 682.48 482.886 682.48 488.886C682.48 494.727 681.537 499.659 679.651 503.682C677.787 507.682 675.241 510.716 672.014 512.784C668.81 514.83 665.219 515.852 661.241 515.852C658.423 515.852 656.026 515.386 654.048 514.455C652.094 513.523 650.491 512.352 649.241 510.943C647.991 509.511 647.037 508.068 646.378 506.614H645.73V515H631.412ZM645.628 488.818C645.628 491.932 646.06 494.648 646.923 496.966C647.787 499.284 649.037 501.091 650.673 502.386C652.31 503.659 654.298 504.295 656.639 504.295C659.003 504.295 661.003 503.648 662.639 502.352C664.276 501.034 665.514 499.216 666.355 496.898C667.219 494.557 667.651 491.864 667.651 488.818C667.651 485.795 667.23 483.136 666.389 480.841C665.548 478.545 664.31 476.75 662.673 475.455C661.037 474.159 659.026 473.511 656.639 473.511C654.276 473.511 652.276 474.136 650.639 475.386C649.026 476.636 647.787 478.409 646.923 480.705C646.06 483 645.628 485.705 645.628 488.818ZM706.693 445.182V515H692.17V445.182H706.693ZM742.19 516.023C736.804 516.023 732.168 514.932 728.281 512.75C724.418 510.545 721.44 507.432 719.349 503.409C717.259 499.364 716.213 494.58 716.213 489.057C716.213 483.67 717.259 478.943 719.349 474.875C721.44 470.807 724.384 467.636 728.179 465.364C731.997 463.091 736.474 461.955 741.611 461.955C745.065 461.955 748.281 462.511 751.259 463.625C754.259 464.716 756.872 466.364 759.099 468.568C761.349 470.773 763.099 473.545 764.349 476.886C765.599 480.205 766.224 484.091 766.224 488.545V492.534H722.009V483.534H752.554C752.554 481.443 752.099 479.591 751.19 477.977C750.281 476.364 749.02 475.102 747.406 474.193C745.815 473.261 743.963 472.795 741.849 472.795C739.645 472.795 737.69 473.307 735.986 474.33C734.304 475.33 732.986 476.682 732.031 478.386C731.077 480.068 730.588 481.943 730.565 484.011V492.568C730.565 495.159 731.043 497.398 731.997 499.284C732.974 501.17 734.349 502.625 736.122 503.648C737.895 504.67 739.997 505.182 742.429 505.182C744.043 505.182 745.52 504.955 746.861 504.5C748.202 504.045 749.349 503.364 750.304 502.455C751.259 501.545 751.986 500.432 752.486 499.114L765.918 500C765.236 503.227 763.838 506.045 761.724 508.455C759.634 510.841 756.929 512.705 753.611 514.045C750.315 515.364 746.509 516.023 742.19 516.023ZM798.193 515V445.182H845.239V457.352H812.955V473.989H842.818V486.159H812.955V502.83H845.375V515H798.193ZM868.838 462.636L878.452 480.943L888.304 462.636H903.202L888.031 488.818L903.611 515H888.781L878.452 496.898L868.293 515H853.293L868.838 488.818L853.838 462.636H868.838ZM911.827 534.636V462.636H926.145V471.432H926.793C927.429 470.023 928.349 468.591 929.554 467.136C930.781 465.659 932.372 464.432 934.327 463.455C936.304 462.455 938.759 461.955 941.69 461.955C945.509 461.955 949.031 462.955 952.259 464.955C955.486 466.932 958.065 469.92 959.997 473.92C961.929 477.898 962.895 482.886 962.895 488.886C962.895 494.727 961.952 499.659 960.065 503.682C958.202 507.682 955.656 510.716 952.429 512.784C949.224 514.83 945.634 515.852 941.656 515.852C938.838 515.852 936.44 515.386 934.463 514.455C932.509 513.523 930.906 512.352 929.656 510.943C928.406 509.511 927.452 508.068 926.793 506.614H926.349V534.636H911.827ZM926.043 488.818C926.043 491.932 926.474 494.648 927.338 496.966C928.202 499.284 929.452 501.091 931.088 502.386C932.724 503.659 934.713 504.295 937.054 504.295C939.418 504.295 941.418 503.648 943.054 502.352C944.69 501.034 945.929 499.216 946.77 496.898C947.634 494.557 948.065 491.864 948.065 488.818C948.065 485.795 947.645 483.136 946.804 480.841C945.963 478.545 944.724 476.75 943.088 475.455C941.452 474.159 939.44 473.511 937.054 473.511C934.69 473.511 932.69 474.136 931.054 475.386C929.44 476.636 928.202 478.409 927.338 480.705C926.474 483 926.043 485.705 926.043 488.818ZM987.099 445.182V515H972.577V445.182H987.099ZM1022.39 516.023C1017.1 516.023 1012.52 514.898 1008.65 512.648C1004.81 510.375 1001.85 507.216 999.756 503.17C997.665 499.102 996.619 494.386 996.619 489.023C996.619 483.614 997.665 478.886 999.756 474.841C1001.85 470.773 1004.81 467.614 1008.65 465.364C1012.52 463.091 1017.1 461.955 1022.39 461.955C1027.69 461.955 1032.26 463.091 1036.1 465.364C1039.96 467.614 1042.94 470.773 1045.03 474.841C1047.12 478.886 1048.16 483.614 1048.16 489.023C1048.16 494.386 1047.12 499.102 1045.03 503.17C1042.94 507.216 1039.96 510.375 1036.1 512.648C1032.26 514.898 1027.69 516.023 1022.39 516.023ZM1022.46 504.773C1024.87 504.773 1026.88 504.091 1028.49 502.727C1030.11 501.341 1031.32 499.455 1032.14 497.068C1032.98 494.682 1033.4 491.966 1033.4 488.92C1033.4 485.875 1032.98 483.159 1032.14 480.773C1031.32 478.386 1030.11 476.5 1028.49 475.114C1026.88 473.727 1024.87 473.034 1022.46 473.034C1020.03 473.034 1017.98 473.727 1016.32 475.114C1014.69 476.5 1013.45 478.386 1012.61 480.773C1011.79 483.159 1011.38 485.875 1011.38 488.92C1011.38 491.966 1011.79 494.682 1012.61 497.068C1013.45 499.455 1014.69 501.341 1016.32 502.727C1017.98 504.091 1020.03 504.773 1022.46 504.773ZM1057.61 515V462.636H1071.69V471.773H1072.23C1073.19 468.523 1074.79 466.068 1077.04 464.409C1079.29 462.727 1081.88 461.886 1084.81 461.886C1085.54 461.886 1086.32 461.932 1087.16 462.023C1088.01 462.114 1088.74 462.239 1089.38 462.398V475.284C1088.7 475.08 1087.76 474.898 1086.55 474.739C1085.35 474.58 1084.24 474.5 1083.24 474.5C1081.11 474.5 1079.2 474.966 1077.52 475.898C1075.86 476.807 1074.54 478.08 1073.56 479.716C1072.61 481.352 1072.13 483.239 1072.13 485.375V515H1057.61ZM1118.32 516.023C1112.93 516.023 1108.29 514.932 1104.41 512.75C1100.54 510.545 1097.57 507.432 1095.47 503.409C1093.38 499.364 1092.34 494.58 1092.34 489.057C1092.34 483.67 1093.38 478.943 1095.47 474.875C1097.57 470.807 1100.51 467.636 1104.3 465.364C1108.12 463.091 1112.6 461.955 1117.74 461.955C1121.19 461.955 1124.41 462.511 1127.38 463.625C1130.38 464.716 1133 466.364 1135.22 468.568C1137.47 470.773 1139.22 473.545 1140.47 476.886C1141.72 480.205 1142.35 484.091 1142.35 488.545V492.534H1098.13V483.534H1128.68C1128.68 481.443 1128.22 479.591 1127.32 477.977C1126.41 476.364 1125.14 475.102 1123.53 474.193C1121.94 473.261 1120.09 472.795 1117.97 472.795C1115.77 472.795 1113.82 473.307 1112.11 474.33C1110.43 475.33 1109.11 476.682 1108.16 478.386C1107.2 480.068 1106.71 481.943 1106.69 484.011V492.568C1106.69 495.159 1107.17 497.398 1108.12 499.284C1109.1 501.17 1110.47 502.625 1112.25 503.648C1114.02 504.67 1116.12 505.182 1118.55 505.182C1120.17 505.182 1121.64 504.955 1122.99 504.5C1124.33 504.045 1125.47 503.364 1126.43 502.455C1127.38 501.545 1128.11 500.432 1128.61 499.114L1142.04 500C1141.36 503.227 1139.96 506.045 1137.85 508.455C1135.76 510.841 1133.05 512.705 1129.74 514.045C1126.44 515.364 1122.63 516.023 1118.32 516.023ZM1151.83 515V462.636H1165.91V471.773H1166.45C1167.41 468.523 1169.01 466.068 1171.26 464.409C1173.51 462.727 1176.1 461.886 1179.03 461.886C1179.76 461.886 1180.54 461.932 1181.38 462.023C1182.22 462.114 1182.96 462.239 1183.6 462.398V475.284C1182.92 475.08 1181.97 474.898 1180.77 474.739C1179.57 474.58 1178.46 474.5 1177.46 474.5C1175.33 474.5 1173.42 474.966 1171.74 475.898C1170.08 476.807 1168.76 478.08 1167.78 479.716C1166.83 481.352 1166.35 483.239 1166.35 485.375V515H1151.83Z" fill="white"/>
<path d="M1308.96 432.827L1555.8 290.049L1802.63 432.827V718.435L1555.8 861.213L1308.96 718.435V432.827Z" stroke="white" stroke-width="32.9781"/>
<path d="M1308.86 433.054L1556.19 289.993L1803.51 433.054V719.227L1556.19 862.287L1308.86 719.227V433.054Z" stroke="white" stroke-width="32"/>
<path d="M1374.03 474.488L1555.5 369.717L1736.97 474.488V684.03L1555.5 788.801L1374.03 684.03V474.488Z" stroke="white" stroke-width="16"/>
<path d="M1426.97 505.36L1556.23 430.732L1685.49 505.36V654.616L1556.23 729.245L1426.97 654.616V505.36Z" stroke="white" stroke-width="8"/>
<circle cx="1555.5" cy="579.5" r="47.5" fill="white"/>
</svg>
